<svg width="215" height="215" viewBox="0 0 215 215" fill="none" xmlns="http://www.w3.org/2000/svg">
<path d="M132.34 141.78C132.29 141.79 132.24 141.79 132.19 141.79C131.99 141.8 131.79 141.81 131.59 141.81C131.39 141.81 131.19 141.8 130.99 141.79C130.94 141.79 130.89 141.79 130.84 141.78C131.09 141.79 131.34 141.79 131.59 141.79C131.84 141.79 132.09 141.79 132.34 141.78Z" fill="#996BE3"/>
<path d="M143.29 130.82C143.3 130.57 143.3 130.32 143.3 130.07C143.3 129.82 143.3 129.57 143.29 129.32C143.31 129.57 143.32 129.82 143.32 130.07C143.32 130.32 143.31 130.57 143.29 130.82Z" fill="#996BE3"/>
<path d="M132.34 141.78C132.29 141.79 132.24 141.79 132.19 141.79C131.99 141.8 131.79 141.81 131.59 141.81C131.39 141.81 131.19 141.8 130.99 141.79C130.94 141.79 130.89 141.79 130.84 141.78C131.09 141.79 131.34 141.79 131.59 141.79C131.84 141.79 132.09 141.79 132.34 141.78Z" fill="#996BE3"/>
<path d="M143.29 130.82C143.3 130.57 143.3 130.32 143.3 130.07C143.3 129.82 143.3 129.57 143.29 129.32C143.31 129.57 143.32 129.82 143.32 130.07C143.32 130.32 143.31 130.57 143.29 130.82Z" fill="#996BE3"/>
<path d="M132.35 188.72C132.1 188.73 131.84 188.73 131.59 188.73C131.34 188.73 131.09 188.73 130.84 188.72H132.35Z" fill="#996BE3"/>
<path d="M132.34 141.78C132.29 141.79 132.24 141.79 132.19 141.79C131.99 141.8 131.79 141.81 131.59 141.81C131.39 141.81 131.19 141.8 130.99 141.79C130.94 141.79 130.89 141.79 130.84 141.78C131.09 141.79 131.34 141.79 131.59 141.79C131.84 141.79 132.09 141.79 132.34 141.78Z" fill="#996BE3"/>
<path d="M143.29 130.82C143.3 130.57 143.3 130.32 143.3 130.07C143.3 129.82 143.3 129.57 143.29 129.32C143.31 129.57 143.32 129.82 143.32 130.07C143.32 130.32 143.31 130.57 143.29 130.82Z" fill="#996BE3"/>
<path d="M190.25 83.13V130.07C190.25 134.08 189.85 138.01 189.08 141.79C187.32 150.46 183.65 158.44 178.53 165.26C175.19 169.71 171.23 173.66 166.79 177C164.78 178.51 162.67 179.9 160.46 181.13L160.07 181.36C154.92 184.23 149.28 186.35 143.32 187.56C139.77 188.28 136.11 188.68 132.35 188.72H130.84C127.08 188.68 123.41 188.28 119.86 187.56C115.77 186.73 111.84 185.47 108.11 183.84C103.92 182.01 99.9899 179.71 96.3899 177C91.9499 173.66 87.9899 169.71 84.6499 165.26C79.5299 158.44 75.8599 150.46 74.0999 141.79C74.0299 141.46 73.9699 141.13 73.9099 140.8C73.2699 137.32 72.9299 133.73 72.9299 130.07V83.13C72.9299 82.93 72.9299 82.74 72.9399 82.54C73.2399 76.53 78.0499 71.72 84.0599 71.42C84.0799 71.41 85.2399 71.41 85.2599 71.42C91.4599 71.73 96.3899 76.85 96.3899 83.13V130.06C96.3899 133.62 96.9199 137.05 97.8999 140.29C98.0499 140.79 98.2199 141.3 98.3999 141.79C101.93 151.79 109.86 159.72 119.86 163.25C123.52 164.55 127.47 165.26 131.58 165.26H131.59C135.7 165.26 139.65 164.55 143.32 163.25C153.32 159.72 161.24 151.79 164.77 141.79C166.07 138.13 166.78 134.18 166.78 130.07V71.41C165.95 62.31 163.94 54.53 161.32 47.95C157.59 38.58 152.62 31.65 148.05 26.83H148.04C147.24 25.98 146.44 25.2 145.67 24.48C144.86 23.72 144.06 23.03 143.31 22.41C141.99 21.32 140.77 20.45 139.72 19.78L143.31 21.9L147.66 24.48L160.35 32.01L160.45 32.07C162.66 33.31 164.77 34.7 166.78 36.21C171.22 39.55 175.18 43.51 178.52 47.95C183.64 54.77 187.31 62.75 189.07 71.41C189.84 75.2 190.24 79.12 190.24 83.14L190.25 83.13Z" fill="#996BE3"/>
<path d="M132.34 141.78C132.29 141.79 132.24 141.79 132.19 141.79C131.99 141.8 131.79 141.81 131.59 141.81C131.39 141.81 131.19 141.8 130.99 141.79C130.94 141.79 130.89 141.79 130.84 141.78C131.09 141.79 131.34 141.79 131.59 141.79C131.84 141.79 132.09 141.79 132.34 141.78Z" fill="#996BE3"/>
<path d="M143.29 130.82C143.3 130.57 143.3 130.32 143.3 130.07C143.3 129.82 143.3 129.57 143.29 129.32C143.31 129.57 143.32 129.82 143.32 130.07C143.32 130.32 143.31 130.57 143.29 130.82Z" fill="#996BE3"/>
<path d="M166.79 71.4V130.06C166.79 134.17 166.08 138.12 164.78 141.78C161.25 151.78 153.33 159.71 143.33 163.24C139.66 164.54 135.71 165.25 131.6 165.25H131.59C127.48 165.25 123.53 164.54 119.87 163.24C109.87 159.71 101.94 151.78 98.41 141.78C98.23 141.29 98.06 140.78 97.91 140.28C96.93 137.04 96.4 133.61 96.4 130.05V83.12C96.4 76.84 91.47 71.72 85.27 71.41C85.25 71.4 84.09 71.4 84.07 71.41C78.06 71.71 73.25 76.52 72.95 82.53C72.94 82.73 72.94 82.92 72.94 83.12V130.06C72.94 133.72 73.28 137.31 73.92 140.79C73.98 141.12 74.04 141.45 74.11 141.78C75.87 150.45 79.54 158.43 84.66 165.25C88 169.7 91.96 173.65 96.4 176.99C100 179.7 103.93 182 108.12 183.83C111.85 185.46 115.78 186.72 119.87 187.55C123.42 188.27 127.09 188.67 130.85 188.71C131.1 188.72 131.35 188.72 131.6 188.72C131.85 188.72 132.11 188.72 132.36 188.71C136.12 188.67 139.78 188.27 143.33 187.55C149.29 186.34 154.93 184.22 160.08 181.35L147.68 188.71L143.33 191.29L119.87 205.21L108.14 212.17L96.4 205.21L77.26 193.86C77.11 193.77 76.95 193.68 76.79 193.58C76.76 193.55 76.72 193.53 76.68 193.51C75.59 192.82 74.33 191.91 72.94 190.78C72.19 190.16 71.4 189.47 70.58 188.71C69.82 188 69.03 187.22 68.23 186.38H68.22C63.65 181.56 58.67 174.62 54.94 165.25C52.32 158.67 50.31 150.88 49.48 141.78V83.1C49.48 78.99 50.19 75.05 51.49 71.39C55.01 61.39 62.94 53.46 72.94 49.94C76.6 48.64 80.55 47.93 84.66 47.93H84.67C88.78 47.93 92.73 48.64 96.4 49.94C106.4 53.46 114.33 61.39 117.86 71.39C118.04 71.89 118.21 72.39 118.36 72.9C119.34 76.14 119.87 79.57 119.87 83.12V129.76C119.87 129.86 119.87 129.96 119.87 130.06C119.87 130.16 119.87 130.26 119.87 130.36C120.02 136.45 124.82 141.39 130.85 141.77C130.9 141.78 130.95 141.78 131 141.78C131.2 141.79 131.4 141.8 131.6 141.8C131.8 141.8 132 141.79 132.2 141.78C132.25 141.78 132.3 141.78 132.35 141.77C138.23 141.4 142.93 136.69 143.3 130.81C143.32 130.56 143.33 130.31 143.33 130.06V83.12C143.33 79.46 142.99 75.87 142.34 72.39C142.29 72.06 142.22 71.72 142.16 71.39C140.4 62.73 136.73 54.75 131.61 47.93C128.27 43.49 124.31 39.53 119.87 36.19C116.26 33.48 112.32 31.17 108.13 29.35C104.41 27.71 100.48 26.46 96.4 25.63C92.61 24.86 88.69 24.46 84.67 24.46C80.65 24.46 76.73 24.86 72.94 25.63C66.86 26.87 61.13 29.04 55.9 31.99L68.59 24.46L72.94 21.88L96.4 7.96L108.14 1L119.87 7.96L139.01 19.31C139.24 19.45 139.48 19.6 139.74 19.76C140.79 20.43 142.01 21.3 143.33 22.39C144.08 23.01 144.88 23.7 145.69 24.46C146.46 25.18 147.26 25.96 148.06 26.81H148.07C152.64 31.63 157.61 38.56 161.34 47.93C163.96 54.51 165.97 62.29 166.8 71.39L166.79 71.4Z" fill="#996BE3"/>
<path d="M143.32 130.07C143.32 129.82 143.31 129.57 143.29 129.32C143.3 129.57 143.3 129.82 143.3 130.07C143.3 130.32 143.3 130.57 143.29 130.82C142.92 136.7 138.22 141.41 132.34 141.78C132.09 141.79 131.84 141.79 131.59 141.79C131.34 141.79 131.09 141.79 130.84 141.78C124.81 141.4 120.01 136.46 119.86 130.37V83.13C119.86 79.58 119.33 76.15 118.35 72.91C118.2 72.4 118.03 71.9 117.85 71.4C114.32 61.4 106.39 53.47 96.39 49.95C92.72 48.65 88.77 47.94 84.66 47.94H84.65C80.54 47.94 76.59 48.65 72.93 49.95C62.93 53.47 55 61.4 51.48 71.4C50.18 75.06 49.47 79 49.47 83.11V141.79C50.3 150.89 52.31 158.68 54.93 165.26C58.66 174.63 63.64 181.57 68.21 186.39H68.22C69.02 187.23 69.81 188.01 70.57 188.72C71.39 189.48 72.18 190.17 72.93 190.79C74.32 191.92 75.58 192.83 76.67 193.52L72.93 191.3L68.58 188.72L56.52 181.56C54.06 180.22 51.71 178.71 49.47 177.03C45.01 173.68 41.05 169.72 37.7 165.26C32.58 158.44 28.91 150.46 27.15 141.79C26.48 138.48 26.09 135.07 26 131.58V83.13C26 79.11 26.4 75.19 27.17 71.4C28.93 62.74 32.6 54.76 37.72 47.94C41.06 43.49 45.02 39.54 49.47 36.19C51.48 34.68 53.59 33.3 55.79 32.06L55.89 32C61.12 29.05 66.85 26.88 72.93 25.64C76.72 24.87 80.64 24.47 84.66 24.47C88.68 24.47 92.6 24.87 96.39 25.64C100.47 26.47 104.4 27.72 108.12 29.36C112.31 31.18 116.25 33.49 119.86 36.2C124.3 39.54 128.26 43.5 131.6 47.94C136.72 54.76 140.39 62.74 142.15 71.4C142.21 71.73 142.28 72.07 142.33 72.4C142.98 75.88 143.32 79.47 143.32 83.13V130.07Z" fill="#996BE3"/>
<path d="M190.25 83.13V130.07C190.25 134.08 189.85 138.01 189.08 141.79C187.32 150.46 183.65 158.44 178.53 165.26C175.19 169.71 171.23 173.66 166.79 177C164.78 178.51 162.67 179.9 160.46 181.13L160.07 181.36C154.92 184.23 149.28 186.35 143.32 187.56C139.77 188.28 136.11 188.68 132.35 188.72H130.84C127.08 188.68 123.41 188.28 119.86 187.56C115.77 186.73 111.84 185.47 108.11 183.84C103.92 182.01 99.9899 179.71 96.3899 177C91.9499 173.66 87.9899 169.71 84.6499 165.26C79.5299 158.44 75.8599 150.46 74.0999 141.79C74.0299 141.46 73.9699 141.13 73.9099 140.8C73.2699 137.32 72.9299 133.73 72.9299 130.07V83.13C72.9299 82.93 72.9299 82.74 72.9399 82.54C73.2399 76.53 78.0499 71.72 84.0599 71.42C84.0799 71.41 85.2399 71.41 85.2599 71.42C91.4599 71.73 96.3899 76.85 96.3899 83.13V130.06C96.3899 133.62 96.9199 137.05 97.8999 140.29C98.0499 140.79 98.2199 141.3 98.3999 141.79C101.93 151.79 109.86 159.72 119.86 163.25C123.52 164.55 127.47 165.26 131.58 165.26H131.59C135.7 165.26 139.65 164.55 143.32 163.25C153.32 159.72 161.24 151.79 164.77 141.79C166.07 138.13 166.78 134.18 166.78 130.07V71.41C165.95 62.31 163.94 54.53 161.32 47.95C157.59 38.58 152.62 31.65 148.05 26.83H148.04C147.24 25.98 146.44 25.2 145.67 24.48C144.86 23.72 144.06 23.03 143.31 22.41C141.99 21.32 140.77 20.45 139.72 19.78L143.31 21.9L147.66 24.48L160.35 32.01L160.45 32.07C162.66 33.31 164.77 34.7 166.78 36.21C171.22 39.55 175.18 43.51 178.52 47.95C183.64 54.77 187.31 62.75 189.07 71.41C189.84 75.2 190.24 79.12 190.24 83.14L190.25 83.13Z" fill="#996BE3"/>
<g filter="url(#filter0_i_99_21)">
<path d="M166.79 71.4V130.06C166.79 134.17 166.08 138.12 164.78 141.78C161.25 151.78 153.33 159.71 143.33 163.24C139.66 164.54 135.71 165.25 131.6 165.25H131.59C127.48 165.25 123.53 164.54 119.87 163.24C109.87 159.71 101.94 151.78 98.41 141.78C98.23 141.29 98.06 140.78 97.91 140.28C96.93 137.04 96.4 133.61 96.4 130.05V83.12C96.4 76.84 91.47 71.72 85.27 71.41C85.25 71.4 84.09 71.4 84.07 71.41C78.06 71.71 73.25 76.52 72.95 82.53C72.94 82.73 72.94 82.92 72.94 83.12V130.06C72.94 133.72 73.28 137.31 73.92 140.79C73.98 141.12 74.04 141.45 74.11 141.78C75.87 150.45 79.54 158.43 84.66 165.25C88 169.7 91.96 173.65 96.4 176.99C100 179.7 103.93 182 108.12 183.83C111.85 185.46 115.78 186.72 119.87 187.55C123.42 188.27 127.09 188.67 130.85 188.71C131.1 188.72 131.35 188.72 131.6 188.72C131.85 188.72 132.11 188.72 132.36 188.71C136.12 188.67 139.78 188.27 143.33 187.55C149.29 186.34 154.93 184.22 160.08 181.35L147.68 188.71L143.33 191.29L119.87 205.21L108.14 212.17L96.4 205.21L77.26 193.86C77.11 193.77 76.95 193.68 76.79 193.58C76.76 193.55 76.72 193.53 76.68 193.51C75.59 192.82 74.33 191.91 72.94 190.78C72.19 190.16 71.4 189.47 70.58 188.71C69.82 188 69.03 187.22 68.23 186.38H68.22C63.65 181.56 58.67 174.62 54.94 165.25C52.32 158.67 50.31 150.88 49.48 141.78V83.1C49.48 78.99 50.19 75.05 51.49 71.39C55.01 61.39 62.94 53.46 72.94 49.94C76.6 48.64 80.55 47.93 84.66 47.93H84.67C88.78 47.93 92.73 48.64 96.4 49.94C106.4 53.46 114.33 61.39 117.86 71.39C118.04 71.89 118.21 72.39 118.36 72.9C119.34 76.14 119.87 79.57 119.87 83.12V129.76C119.87 129.86 119.87 129.96 119.87 130.06C119.87 130.16 119.87 130.26 119.87 130.36C120.02 136.45 124.82 141.39 130.85 141.77C130.9 141.78 130.95 141.78 131 141.78C131.2 141.79 131.4 141.8 131.6 141.8C131.8 141.8 132 141.79 132.2 141.78C132.25 141.78 132.3 141.78 132.35 141.77C138.23 141.4 142.93 136.69 143.3 130.81C143.32 130.56 143.33 130.31 143.33 130.06V83.12C143.33 79.46 142.99 75.87 142.34 72.39C142.29 72.06 142.22 71.72 142.16 71.39C140.4 62.73 136.73 54.75 131.61 47.93C128.27 43.49 124.31 39.53 119.87 36.19C116.26 33.48 112.32 31.17 108.13 29.35C104.41 27.71 100.48 26.46 96.4 25.63C92.61 24.86 88.69 24.46 84.67 24.46C80.65 24.46 76.73 24.86 72.94 25.63C66.86 26.87 61.13 29.04 55.9 31.99L68.59 24.46L72.94 21.88L96.4 7.96L108.14 1L119.87 7.96L139.01 19.31C139.24 19.45 139.48 19.6 139.74 19.76C140.79 20.43 142.01 21.3 143.33 22.39C144.08 23.01 144.88 23.7 145.69 24.46C146.46 25.18 147.26 25.96 148.06 26.81H148.07C152.64 31.63 157.61 38.56 161.34 47.93C163.96 54.51 165.97 62.29 166.8 71.39L166.79 71.4Z" fill="#7755B0"/>
</g>
<path d="M143.32 130.07C143.32 129.82 143.31 129.57 143.29 129.32C143.3 129.57 143.3 129.82 143.3 130.07C143.3 130.32 143.3 130.57 143.29 130.82C142.92 136.7 138.22 141.41 132.34 141.78C132.09 141.79 131.84 141.79 131.59 141.79C131.34 141.79 131.09 141.79 130.84 141.78C124.81 141.4 120.01 136.46 119.86 130.37V83.13C119.86 79.58 119.33 76.15 118.35 72.91C118.2 72.4 118.03 71.9 117.85 71.4C114.32 61.4 106.39 53.47 96.39 49.95C92.72 48.65 88.77 47.94 84.66 47.94H84.65C80.54 47.94 76.59 48.65 72.93 49.95C62.93 53.47 55 61.4 51.48 71.4C50.18 75.06 49.47 79 49.47 83.11V141.79C50.3 150.89 52.31 158.68 54.93 165.26C58.66 174.63 63.64 181.57 68.21 186.39H68.22C69.02 187.23 69.81 188.01 70.57 188.72C71.39 189.48 72.18 190.17 72.93 190.79C74.32 191.92 75.58 192.83 76.67 193.52L72.93 191.3L68.58 188.72L56.52 181.56C54.06 180.22 51.71 178.71 49.47 177.03C45.01 173.68 41.05 169.72 37.7 165.26C32.58 158.44 28.91 150.46 27.15 141.79C26.48 138.48 26.09 135.07 26 131.58V83.13C26 79.11 26.4 75.19 27.17 71.4C28.93 62.74 32.6 54.76 37.72 47.94C41.06 43.49 45.02 39.54 49.47 36.19C51.48 34.68 53.59 33.3 55.79 32.06L55.89 32C61.12 29.05 66.85 26.88 72.93 25.64C76.72 24.87 80.64 24.47 84.66 24.47C88.68 24.47 92.6 24.87 96.39 25.64C100.47 26.47 104.4 27.72 108.12 29.36C112.31 31.18 116.25 33.49 119.86 36.2C124.3 39.54 128.26 43.5 131.6 47.94C136.72 54.76 140.39 62.74 142.15 71.4C142.21 71.73 142.28 72.07 142.33 72.4C142.98 75.88 143.32 79.47 143.32 83.13V130.07Z" fill="#996BE3"/>
<defs>
<filter id="filter0_i_99_21" x="49.48" y="1" width="119.32" height="213.17" filterUnits="userSpaceOnUse" color-interpolation-filters="sRGB">
<feFlood flood-opacity="0" result="BackgroundImageFix"/>
<feBlend mode="normal" in="SourceGraphic" in2="BackgroundImageFix" result="shape"/>
<feColorMatrix in="SourceAlpha" type="matrix" values="0 0 0 0 0 0 0 0 0 0 0 0 0 0 0 0 0 0 127 0" result="hardAlpha"/>
<feOffset dx="2" dy="2"/>
<feGaussianBlur stdDeviation="6"/>
<feComposite in2="hardAlpha" operator="arithmetic" k2="-1" k3="1"/>
<feColorMatrix type="matrix" values="0 0 0 0 0 0 0 0 0 0 0 0 0 0 0 0 0 0 0.45 0"/>
<feBlend mode="normal" in2="shape" result="effect1_innerShadow_99_21"/>
</filter>
</defs>
</svg>
